{
    "accessors": {
        "accessor_buffer_Ea4E804919Bd44A991Ea9D792175Ffd6_0": {
            "bufferView": "bufferView_buffer_Ea4E804919Bd44A991Ea9D792175Ffd6_0",
            "byteOffset": 0,
            "byteStride": 24,
            "componentType": 5126,
            "count": 1403,
            "max": [
                3.809999942779541,
                17.779510498046875,
                1.1739346518879756e-05
            ],
            "min": [
                -11.430000305175781,
                -17.805940628051758,
                -13.21013355255127
            ],
            "type": "VEC3"
        },
        "accessor_buffer_Ea4E804919Bd44A991Ea9D792175Ffd6_1": {
            "bufferView": "bufferView_buffer_Ea4E804919Bd44A991Ea9D792175Ffd6_0",
            "byteOffset": 12,
            "byteStride": 24,
            "componentType": 5126,
            "count": 1403,
            "max": [
                0.9847510457038879,
                0.9381750226020813,
                0.9481536149978638
            ],
            "min": [
                -0.9820412397384644,
                -0.9581825733184814,
                -0.9394813776016235
            ],
            "type": "VEC3"
        },
        "accessor_buffer_Ea4E804919Bd44A991Ea9D792175Ffd6_2": {
            "bufferView": "bufferView_buffer_Ea4E804919Bd44A991Ea9D792175Ffd6_1",
            "byteOffset": 0,
            "byteStride": 2,
            "componentType": 5123,
            "count": 1404,
            "max": [
                1402
            ],
            "min": [
                0
            ],
            "type": "SCALAR"
        }
    },
    "asset": {
        "profile": {
            "api": "WebGL",
            "version": "1.0.3"
        },
        "version": "1.0"
    },
    "bufferViews": {
        "bufferView_buffer_Ea4E804919Bd44A991Ea9D792175Ffd6_0": {
            "buffer": "buffer_combined",
            "byteLength": 33672,
            "byteOffset": 0,
            "target": 34962
        },
        "bufferView_buffer_Ea4E804919Bd44A991Ea9D792175Ffd6_1": {
            "buffer": "buffer_combined",
            "byteLength": 2808,
            "byteOffset": 33672,
            "target": 34963
        }
    },
    "buffers": {
        "buffer_combined": {
            "byteLength": 36480,
            "type": "arraybuffer",
            "uri": "buffer_combined.bin"
        }
    },
    "cameras": {
        "camera_Camera": {
            "name": "Camera",
            "perspective": {
                "aspectRatio": 1.703595982340029,
                "yfov": 0.5033799409866333,
                "zfar": 100.0,
                "znear": 0.10000000149011612
            },
            "type": "perspective"
        }
    },
    "extensions": {
        "KHR_materials_common": {
            "lights": {
                "light_Lamp": {
                    "name": "Lamp",
                    "point": {
                        "color": [
                            1.0,
                            1.0,
                            1.0
                        ],
                        "constantAttenuation": 1,
                        "linearAttenuation": 0,
                        "quadraticAttenuation": 0.03333335240683057
                    },
                    "type": "point"
                }
            }
        }
    },
    "extensionsUsed": [
        "KHR_materials_common"
    ],
    "meshes": {
        "mesh_Ea4E804919Bd44A991Ea9D792175Ffd6": {
            "name": "Ea4E804919Bd44A991Ea9D792175Ffd6",
            "primitives": [
                {
                    "attributes": {
                        "NORMAL": "accessor_buffer_Ea4E804919Bd44A991Ea9D792175Ffd6_1",
                        "POSITION": "accessor_buffer_Ea4E804919Bd44A991Ea9D792175Ffd6_0"
                    },
                    "indices": "accessor_buffer_Ea4E804919Bd44A991Ea9D792175Ffd6_2",
                    "mode": 4
                }
            ]
        }
    },
    "nodes": {
        "node_Camera": {
            "camera": "camera_Camera",
            "children": [],
            "matrix": [
                0.6859206557273865,
                0.7276763319969177,
                0.0,
                0.0,
                -0.32401347160339355,
                0.305420845746994,
                0.8953956365585327,
                0.0,
                0.6515582203865051,
                -0.6141703724861145,
                0.44527140259742737,
                0.0,
                7.481131553649902,
                -6.5076398849487305,
                5.34366512298584,
                1.0
            ],
            "name": "Camera"
        },
        "node_Ea4E804919Bd44A991Ea9D792175Ffd6": {
            "children": [],
            "matrix": [
                1.0,
                0.0,
                0.0,
                0.0,
                0.0,
                1.0,
                0.0,
                0.0,
                0.0,
                0.0,
                1.0,
                0.0,
                0.0,
                0.0,
                0.0,
                1.0
            ],
            "meshes": [
                "mesh_Ea4E804919Bd44A991Ea9D792175Ffd6"
            ],
            "name": "Ea4E804919Bd44A991Ea9D792175Ffd6"
        },
        "node_Lamp": {
            "children": [],
            "extensions": {
                "KHR_materials_common": {
                    "light": "light_Lamp"
                }
            },
            "matrix": [
                -0.29086464643478394,
                0.9551711678504944,
                -0.05518905818462372,
                0.0,
                -0.7711008191108704,
                -0.1998833566904068,
                0.6045247316360474,
                0.0,
                0.5663931965827942,
                0.21839119493961334,
                0.7946722507476807,
                0.0,
                4.076245307922363,
                1.0054539442062378,
                5.903861999511719,
                1.0
            ],
            "name": "Lamp"
        }
    },
    "samplers": {
        "sampler_default": {}
    },
    "scene": "scene_Scene",
    "scenes": {
        "scene_Scene": {
            "extras": {
                "active_camera": "camera_Camera",
                "background_color": [
                    0.05087608844041824,
                    0.05087608844041824,
                    0.05087608844041824
                ],
                "frames_per_second": 24
            },
            "name": "Scene",
            "nodes": [
                "node_Ea4E804919Bd44A991Ea9D792175Ffd6",
                "node_Lamp",
                "node_Camera"
            ]
        }
    }
}
